<svg width="48" height="48" viewBox="0 0 48 48" fill="none" xmlns="http://www.w3.org/2000/svg">
<path style="stroke:none; fill:inherit;" d="M24 11C17.275 11 12 14.075 12 18V30C12 33.925 17.275 37 24 37C30.725 37 36 33.925 36 30V18C36 14.075 30.725 11 24 11ZM34 24C34 25.2 33.0125 26.425 31.3 27.3625C29.3625 28.425 26.775 29 24 29C21.225 29 18.6375 28.425 16.7 27.3625C14.9875 26.425 14 25.2 14 24V21.925C16.1375 23.7875 19.775 25 24 25C28.225 25 31.8625 23.7875 34 21.925V24ZM16.7 14.6375C18.6375 13.575 21.225 13 24 13C26.775 13 29.3625 13.575 31.3 14.6375C33.0125 15.575 34 16.8 34 18C34 19.2 33.0125 20.425 31.3 21.3625C29.3625 22.425 26.775 23 24 23C21.225 23 18.6375 22.425 16.7 21.3625C14.9875 20.425 14 19.2 14 18C14 16.8 14.9875 15.575 16.7 14.6375ZM31.3 33.3625C29.3625 34.425 26.775 35 24 35C21.225 35 18.6375 34.425 16.7 33.3625C14.9875 32.425 14 31.2 14 30V27.925C16.1375 29.7875 19.775 31 24 31C28.225 31 31.8625 29.7875 34 27.925V30C34 31.2 33.0125 32.425 31.3 33.3625Z" />
</svg>
