<svg width="48" height="48" viewBox="0 0 48 48" fill="none" xmlns="http://www.w3.org/2000/svg">
<g clip-path="url(#clip0_440_177)">
<path d="M7.03525 18.8522C6.90915 18.541 6.73017 18.2563 6.50237 18.0102C6.27458 17.7641 6.00407 17.5546 5.69491 17.3837C5.3878 17.2149 5.0522 17.0827 4.6922 16.9891L2.8678 16.562C2.43864 16.4441 2.08271 16.2427 1.8122 15.9641C1.54576 15.6875 1.41559 15.3803 1.41559 15.0203C1.41559 14.8027 1.47254 14.5993 1.59051 14.4C1.71051 14.1966 1.87119 14.0197 2.07051 13.8712C2.27186 13.7207 2.50983 13.5986 2.77424 13.5091C3.03864 13.4197 3.32542 13.3749 3.62034 13.3749C3.91525 13.3749 4.20407 13.4197 4.47458 13.5091C4.74508 13.5986 4.98305 13.7186 5.18441 13.8691C5.38373 14.0176 5.54441 14.1966 5.66441 14.398C5.78034 14.5952 5.83932 14.8047 5.83932 15.0183V15.1505H6.99864V12.4312H5.83932V12.9051C5.58712 12.7139 5.29424 12.5573 4.96678 12.4373C4.53966 12.2807 4.08814 12.2034 3.62034 12.2034C3.15254 12.2034 2.72542 12.2725 2.32271 12.4108C1.91797 12.5491 1.55797 12.7424 1.24881 12.9864C0.937627 13.2325 0.687458 13.5336 0.506441 13.8773C0.32339 14.2251 0.229831 14.6095 0.229831 15.0203C0.229831 15.3559 0.288814 15.6732 0.40678 15.958C0.522712 16.2427 0.689492 16.503 0.898983 16.7308C1.10644 16.9586 1.35864 17.158 1.64542 17.3227C1.9322 17.4895 2.24949 17.6156 2.59119 17.6969L4.42983 18.122C4.91186 18.2583 5.31254 18.4881 5.61966 18.8075C5.92271 19.1227 6.07119 19.4786 6.07119 19.8915C6.07119 20.1417 6.00814 20.3817 5.88203 20.6014C5.75186 20.8251 5.57491 21.0264 5.35525 21.1973C5.13153 21.3702 4.86915 21.5064 4.57424 21.6041C4.27729 21.7017 3.95797 21.7505 3.62644 21.7505C3.29492 21.7505 2.97763 21.7017 2.68678 21.6041C2.39593 21.5064 2.13356 21.3702 1.90983 21.1973C1.68814 21.0264 1.51119 20.8251 1.38305 20.6014C1.25695 20.3817 1.1939 20.1437 1.1939 19.8915V19.7593H0V19.8915C0 20.3125 0.099661 20.7132 0.296949 21.0814C0.490169 21.4475 0.754576 21.7729 1.08203 22.0495C1.40949 22.3261 1.79593 22.5437 2.23119 22.7003C2.66644 22.8569 3.13424 22.9342 3.61831 22.9342C4.10237 22.9342 4.5661 22.859 4.99729 22.7125C5.42847 22.5661 5.81288 22.3566 6.14034 22.0881C6.46983 21.8197 6.73424 21.4963 6.92949 21.1261C7.12475 20.7519 7.22441 20.3369 7.22441 19.8895C7.22441 19.5091 7.16136 19.1573 7.03525 18.8461V18.8522Z" fill="#191D46"/>
<path d="M20.4712 13.6027H21.3925V21.5288H20.4712V22.7146H23.459V21.5288H22.5641V13.6027H23.459V12.4312H20.4712V13.6027Z" fill="#191D46"/>
<path d="M17.4488 14.2413C17.3207 14.0786 17.1844 13.9241 17.04 13.7797C16.558 13.2976 15.9844 12.9112 15.3356 12.6305C14.6847 12.3498 13.981 12.2054 13.2468 12.2054C12.5125 12.2054 11.8068 12.3498 11.1559 12.6305C10.5071 12.9112 9.93151 13.2997 9.44541 13.7797C8.95931 14.2617 8.57287 14.8352 8.29423 15.4841C8.01558 16.1349 7.87524 16.8366 7.87524 17.5729C7.87524 18.3091 8.01558 19.0129 8.29423 19.6617C8.57084 20.3125 8.95931 20.8861 9.44541 21.3661C9.93151 21.8481 10.5071 22.2346 11.1559 22.5152C11.8068 22.798 12.5105 22.9403 13.2468 22.9403C13.983 22.9403 14.6847 22.798 15.3356 22.5152C15.9844 22.2346 16.558 21.8481 17.04 21.3661C17.1844 21.2217 17.3207 21.0651 17.4488 20.9044V22.7146H19.5173V21.5288H18.6224V13.6027H19.5173V12.4312H17.4488V14.2413ZM13.2468 21.7566C12.6712 21.7566 12.122 21.6447 11.6156 21.4271C11.1071 21.2074 10.6576 20.9064 10.2793 20.5322C9.90101 20.158 9.59796 19.7125 9.38033 19.2041C9.16067 18.6976 9.05084 18.1485 9.05084 17.5729C9.05084 16.9973 9.16067 16.4481 9.38033 15.9417C9.59999 15.4332 9.90304 14.9878 10.2793 14.6135C10.6576 14.2393 11.1071 13.9383 11.6156 13.7186C12.122 13.499 12.6712 13.3891 13.2468 13.3891C13.8224 13.3891 14.3715 13.501 14.878 13.7186C15.3864 13.9383 15.8319 14.2393 16.2061 14.6135C16.5803 14.9858 16.8813 15.4332 17.101 15.9417C17.3207 16.4481 17.4305 16.9973 17.4305 17.5729C17.4305 18.1485 17.3186 18.6976 17.101 19.2041C16.8813 19.7125 16.5803 20.158 16.2061 20.5322C15.8319 20.9064 15.3864 21.2074 14.878 21.4251C14.3715 21.6447 13.8224 21.7546 13.2468 21.7546V21.7566Z" fill="#191D46"/>
<path d="M35.6359 13.6027H36.5573V21.5288H35.6359V22.7146H43.6352V19.4868H42.4617V21.5288H37.7288V13.6027H42.4617V15.6773H43.6352V12.4312H35.6359V13.6027Z" fill="#191D46"/>
<path d="M33.1607 14.0014C33.0122 13.8264 32.8495 13.6556 32.6746 13.4949C32.402 13.2407 32.0929 13.0129 31.7552 12.8217C31.4176 12.6305 31.0413 12.478 30.6346 12.3681C30.2298 12.2583 29.7844 12.2034 29.3105 12.2034C28.5742 12.2034 27.8725 12.3478 27.2217 12.6285C26.5729 12.9091 25.9993 13.2976 25.5173 13.7776C25.0352 14.2597 24.6488 14.8332 24.3661 15.482C24.0834 16.1329 23.941 16.8346 23.941 17.5708C23.941 18.3071 24.0834 19.0108 24.3661 19.6617C24.6468 20.3105 25.0332 20.8841 25.5173 21.3661C25.9993 21.8481 26.5729 22.2346 27.2217 22.5152C27.8725 22.798 28.5763 22.9403 29.3105 22.9403C29.7763 22.9403 30.2217 22.8752 30.6386 22.7471C31.0536 22.619 31.44 22.438 31.7878 22.2102C32.1336 21.9824 32.4468 21.7098 32.7173 21.3986C32.878 21.2136 33.0264 21.0163 33.1607 20.8108V22.7146H34.3464V16.9871H29.5261V17.16L30.2644 18.1729H33.1444C33.0834 18.6447 32.9512 19.0902 32.7519 19.499C32.5322 19.9505 32.2474 20.3491 31.9037 20.6847C31.56 21.0203 31.1634 21.2847 30.722 21.4739C30.2827 21.661 29.8068 21.7566 29.3105 21.7566C28.7349 21.7566 28.1858 21.6447 27.6793 21.4271C27.1729 21.2075 26.7254 20.9064 26.3512 20.5342C25.9769 20.16 25.6759 19.7146 25.4583 19.2061C25.2386 18.6997 25.1288 18.1505 25.1288 17.5749C25.1288 16.9993 25.2407 16.4502 25.4583 15.9437C25.678 15.4352 25.979 14.9898 26.3512 14.6156C26.7254 14.2414 27.1729 13.9403 27.6793 13.7207C28.1858 13.501 28.7349 13.3912 29.3105 13.3912C29.7234 13.3912 30.1261 13.4502 30.5085 13.5661C30.8929 13.682 31.2488 13.8468 31.5722 14.0522C31.8956 14.2597 32.1864 14.5098 32.4386 14.7966C32.6929 15.0854 32.9085 15.4068 33.0813 15.7505L33.118 15.8237H34.3464V12.4312H33.1607V14.0034V14.0014Z" fill="#191D46"/>
<path d="M38.8536 18.1708H41.819V16.9851H38.1132V17.1559L38.8536 18.1708Z" fill="#191D46"/>
<path d="M47.2434 16.9851H44.28V18.1708H47.9837V18L47.2434 16.9851Z" fill="#191D46"/>
<path d="M5.01966 34.259L1.94441 25.9668H0V27.2705H1.00271L4.44 36.4637H5.59729L9.04881 27.2705H10.0373V25.9668H8.10712L5.01966 34.259Z" fill="#E68840"/>
<path d="M10.7959 27.2705H11.7275V35.1458H10.7959V36.4637H13.9322V35.1458H13.0291V27.2705H13.9322V25.9668H10.7959V27.2705Z" fill="#E68840"/>
<path d="M21.4902 31.617C21.2563 31.3648 20.9776 31.1471 20.6603 30.9722C20.3451 30.7993 20.0014 30.6631 19.6332 30.5695L17.7946 30.1404C17.3715 30.0244 17.0237 29.8271 16.7573 29.5526C16.499 29.2861 16.3749 28.9892 16.3749 28.6434C16.3749 28.4339 16.4298 28.2387 16.5437 28.0475C16.6597 27.8502 16.8183 27.6773 17.0115 27.5309C17.2088 27.3824 17.4427 27.2624 17.7051 27.1749C18.2298 27 18.8502 27 19.3831 27.1749C19.6495 27.2624 19.8854 27.3824 20.0827 27.5309C20.278 27.6753 20.4346 27.8502 20.5505 28.0475C20.6644 28.2387 20.7193 28.4339 20.7193 28.6434V28.8366H22.0088V25.9688H20.7193V26.3532C20.4814 26.1966 20.2129 26.0685 19.918 25.9668C19.4807 25.8163 19.019 25.741 18.541 25.741C18.0631 25.741 17.6258 25.8122 17.2109 25.9546C16.7959 26.0949 16.4258 26.2942 16.1085 26.5465C15.7871 26.8007 15.5309 27.1078 15.3437 27.4637C15.1546 27.8217 15.059 28.2203 15.059 28.6454C15.059 28.9932 15.12 29.3187 15.242 29.6156C15.362 29.9085 15.5329 30.179 15.7505 30.4149C15.9641 30.6488 16.2224 30.8542 16.5173 31.0251C16.8102 31.1959 17.1356 31.3241 17.4875 31.4095L19.3383 31.8387C19.8142 31.9729 20.2088 32.1987 20.5119 32.5139C20.8068 32.821 20.9492 33.1648 20.9492 33.5654C20.9492 33.8115 20.8902 34.0353 20.7661 34.2509C20.64 34.4705 20.4651 34.6678 20.2495 34.8346C20.0298 35.0054 19.7695 35.1397 19.4787 35.2353C19.1858 35.3309 18.8705 35.3797 18.541 35.3797C18.2115 35.3797 17.9003 35.3309 17.6115 35.2353C17.3227 35.1397 17.0665 35.0054 16.8468 34.8346C16.6292 34.6678 16.4563 34.4705 16.3302 34.2509C16.2061 34.0373 16.1471 33.8115 16.1471 33.5654V33.3722H14.8292V33.5654C14.8292 34.0007 14.9329 34.4136 15.1342 34.7939C15.3336 35.1681 15.6061 35.5037 15.9417 35.7885C16.2773 36.0712 16.6739 36.297 17.1193 36.4576C17.5648 36.6163 18.0427 36.6976 18.539 36.6976C19.0353 36.6976 19.5092 36.6224 19.9485 36.4719C20.3898 36.3214 20.7844 36.1058 21.12 35.8312C21.4576 35.5546 21.7302 35.221 21.9295 34.8407C22.1329 34.4542 22.2346 34.0251 22.2346 33.5654C22.2346 33.1749 22.1695 32.8109 22.0393 32.4895C21.9092 32.1681 21.7241 31.8773 21.4902 31.621V31.617Z" fill="#E68840"/>
<path d="M23.1295 27.2705H24.061V35.1458H23.1295V36.4637H26.2658V35.1458H25.3627V27.2705H26.2658V25.9668H23.1295V27.2705Z" fill="#E68840"/>
<path d="M44.7763 25.9668V27.2705H45.6793V33.8258L40.8041 25.9668H38.6583V27.2705H39.5878V35.1458H38.6583V36.4637H41.7946V35.1458H40.8895V28.617L45.7668 36.4637H46.983V27.2705H47.9125V25.9668H44.7763Z" fill="#E68840"/>
<path d="M36.3458 27.3437C35.8535 26.8515 35.2698 26.459 34.6068 26.1702C33.9417 25.8834 33.2258 25.737 32.4752 25.737C31.7247 25.737 31.0068 25.8834 30.3417 26.1702C29.6807 26.457 29.0929 26.8515 28.5986 27.3417C28.1024 27.8339 27.7078 28.4197 27.4251 29.0807C27.1424 29.7437 26.998 30.4617 26.998 31.2122C26.998 31.9627 27.1424 32.6807 27.4251 33.3437C27.7078 34.0068 28.1024 34.5925 28.5986 35.0827C29.0949 35.5749 29.6807 35.9695 30.3417 36.2542C31.0068 36.5431 31.7227 36.6875 32.4752 36.6875C33.2278 36.6875 33.9437 36.541 34.6068 36.2542C35.2678 35.9675 35.8535 35.5729 36.3458 35.0807C36.8359 34.5905 37.2325 34.0048 37.5193 33.3437C37.8081 32.6786 37.9525 31.9627 37.9525 31.2122C37.9525 30.4617 37.8061 29.7437 37.5193 29.0786C37.2325 28.4176 36.838 27.8319 36.3458 27.3417V27.3437ZM32.4752 35.3756C31.9017 35.3756 31.3566 35.2658 30.8542 35.0481C30.3498 34.8305 29.9024 34.5295 29.5261 34.1573C29.1498 33.7851 28.8488 33.3417 28.6312 32.8373C28.4135 32.3349 28.3037 31.7878 28.3037 31.2163C28.3037 30.6448 28.4135 30.0976 28.6312 29.5953C28.8488 29.0909 29.1498 28.6454 29.5261 28.2753C29.9024 27.9031 30.3498 27.6041 30.8542 27.3844C31.3566 27.1668 31.9037 27.057 32.4752 27.057C33.0468 27.057 33.5939 27.1668 34.0963 27.3844C34.6007 27.602 35.0461 27.901 35.4183 28.2732C35.7905 28.6454 36.0895 29.0888 36.3071 29.5953C36.5247 30.0997 36.6346 30.6448 36.6346 31.2163C36.6346 31.7878 36.5247 32.3349 36.3071 32.8373C36.0895 33.3417 35.7905 33.7871 35.4183 34.1593C35.0461 34.5315 34.6027 34.8305 34.0963 35.0481C33.5919 35.2658 33.0468 35.3756 32.4752 35.3756Z" fill="#E68840"/>
</g>
<defs>
<clipPath id="clip0_440_177">
<rect width="48" height="24.8136" fill="white" transform="translate(0 12)"/>
</clipPath>
</defs>
</svg>
