<svg width="40" height="40" viewBox="0 0 40 40" xmlns="http://www.w3.org/2000/svg">
<mask id="path-2-inside-1_443_455" fill="white" stroke="none">
<path fill-rule="evenodd" clip-rule="evenodd" d="M19.1523 7H20.8764V8.7667C25.2327 9.19922 28.635 12.8747 28.635 17.3448V20.3621L31.1222 23.3793V26.9074H24.1778V27.8333C24.1778 30.1345 22.3123 32 20.0111 32C17.7099 32 15.8445 30.1345 15.8445 27.8333V26.9074H8.90002V23.3793L11.3936 20.3621V17.3448C11.3936 12.8747 14.7959 9.19921 19.1523 8.76669V7ZM17.8445 26.9074V27.8333C17.8445 29.0299 18.8145 30 20.0111 30C21.2078 30 22.1778 29.0299 22.1778 27.8333V26.9074H17.8445Z"/>
</mask>
<path style="fill:inherit; stroke:none;" d="M20.8764 7H22.8764V5H20.8764V7ZM19.1523 7V5H17.1523V7H19.1523ZM20.8764 8.7667H18.8764V10.578L20.6788 10.7569L20.8764 8.7667ZM28.635 20.3621H26.635V21.0801L27.0918 21.6342L28.635 20.3621ZM31.1222 23.3793H33.1222V22.6612L32.6655 22.1071L31.1222 23.3793ZM31.1222 26.9074V28.9074H33.1222V26.9074H31.1222ZM24.1778 26.9074V24.9074H22.1778V26.9074H24.1778ZM15.8445 26.9074H17.8445V24.9074H15.8445V26.9074ZM8.90002 26.9074H6.90002V28.9074H8.90002V26.9074ZM8.90002 23.3793L7.35838 22.1052L6.90002 22.6598V23.3793H8.90002ZM11.3936 20.3621L12.9353 21.6362L13.3936 21.0816V20.3621H11.3936ZM19.1523 8.76669L19.3499 10.7569L21.1523 10.578V8.76669H19.1523ZM17.8445 26.9074V24.9074H15.8445V26.9074H17.8445ZM22.1778 26.9074H24.1778V24.9074H22.1778V26.9074ZM20.8764 5H19.1523V9H20.8764V5ZM22.8764 8.7667V7H18.8764V8.7667H22.8764ZM30.635 17.3448C30.635 11.8364 26.4431 7.30957 21.074 6.77648L20.6788 10.7569C24.0223 11.0889 26.635 13.913 26.635 17.3448H30.635ZM30.635 20.3621V17.3448H26.635V20.3621H30.635ZM32.6655 22.1071L30.1783 19.0899L27.0918 21.6342L29.579 24.6515L32.6655 22.1071ZM33.1222 26.9074V23.3793H29.1222V26.9074H33.1222ZM24.1778 28.9074H31.1222V24.9074H24.1778V28.9074ZM26.1778 27.8333V26.9074H22.1778V27.8333H26.1778ZM20.0111 34C23.4169 34 26.1778 31.2391 26.1778 27.8333H22.1778C22.1778 29.0299 21.2078 30 20.0111 30V34ZM13.8445 27.8333C13.8445 31.2391 16.6054 34 20.0111 34V30C18.8145 30 17.8445 29.0299 17.8445 27.8333H13.8445ZM13.8445 26.9074V27.8333H17.8445V26.9074H13.8445ZM8.90002 28.9074H15.8445V24.9074H8.90002V28.9074ZM6.90002 23.3793V26.9074H10.9V23.3793H6.90002ZM9.85199 19.088L7.35838 22.1052L10.4417 24.6534L12.9353 21.6362L9.85199 19.088ZM9.39363 17.3448V20.3621H13.3936V17.3448H9.39363ZM18.9547 6.77648C13.5855 7.30955 9.39363 11.8364 9.39363 17.3448H13.3936C13.3936 13.913 16.0063 11.0889 19.3499 10.7569L18.9547 6.77648ZM17.1523 7V8.76669H21.1523V7H17.1523ZM15.8445 26.9074V27.8333H19.8445V26.9074H15.8445ZM15.8445 27.8333C15.8445 30.1345 17.7099 32 20.0111 32V28C19.9191 28 19.8445 27.9254 19.8445 27.8333H15.8445ZM20.0111 32C22.3123 32 24.1778 30.1345 24.1778 27.8333H20.1778C20.1778 27.9254 20.1032 28 20.0111 28V32ZM24.1778 27.8333V26.9074H20.1778V27.8333H24.1778ZM17.8445 28.9074H22.1778V24.9074H17.8445V28.9074Z" mask="url(#path-2-inside-1_443_455)"/>
</svg>

