<svg width="48" height="48" viewBox="0 0 48 48" fill="none" xmlns="http://www.w3.org/2000/svg">
<path style="stroke:none; fill:inherit;" fill-rule="evenodd" clip-rule="evenodd" d="M21.1418 12.1779L20.1418 10.4458L18.4097 11.4458L15.9222 12.882L14.1901 13.882L15.1901 15.614L16.2654 17.4764C16.1111 17.6599 15.9622 17.8502 15.8191 18.0472C15.2454 18.8368 14.8025 19.6817 14.4865 20.5558L12.339 20.5558L10.339 20.5558L10.339 22.5558L10.339 25.4281L10.339 27.4281L12.339 27.4281L14.4899 27.4281C14.8897 28.5368 15.4854 29.5827 16.2683 30.5094L15.1932 32.3716L14.1932 34.1036L15.9252 35.1036L18.4127 36.5398L20.1448 37.5398L21.1448 35.8077L22.2206 33.9444C23.4012 34.1544 24.6045 34.1507 25.7722 33.9427L26.85 35.8095L27.85 37.5416L29.5821 36.5416L32.0696 35.1054L33.8016 34.1054L32.8016 32.3734L31.7255 30.5095C31.8818 30.3239 32.0325 30.1314 32.1773 29.9321C32.75 29.1438 33.1923 28.3006 33.5082 27.4281L35.6588 27.4281L37.6588 27.4281L37.6588 25.4281L37.6588 22.5558L37.6588 20.5558L35.6588 20.5558L33.5082 20.5558C33.1088 19.4466 32.5132 18.4 31.7305 17.4727L32.8047 15.6122L33.8047 13.8802L32.0726 12.8802L29.5851 11.444L27.853 10.444L26.853 12.1761L25.7795 14.0355C24.5948 13.8244 23.3873 13.8284 22.2157 14.0381L21.1418 12.1779ZM16.9222 14.614L17.7462 16.0413L18.7106 17.7116C17.2091 18.9732 16.2472 20.703 15.9175 22.5558L13.9884 22.5558L12.339 22.5558L12.339 23.4281L12.339 24.5558L12.339 25.4281L13.9911 25.4281L15.9162 25.4281C16.0788 26.3417 16.4002 27.243 16.8909 28.093C17.3824 28.9443 18.0034 29.6742 18.7146 30.2722L17.752 31.9394L16.9252 33.3716L17.6807 33.8077L18.6573 34.3716L19.4127 34.8077L20.2387 33.3772L21.2035 31.706C22.9719 32.3455 24.9494 32.3769 26.7913 31.7079L27.755 33.3771L28.5821 34.8095L29.3375 34.3734L30.3141 33.8095L31.0696 33.3734L30.2438 31.943L29.2795 30.2729C30.7833 29.0119 31.747 27.2817 32.078 25.4281L34.0073 25.4281L35.6588 25.4281L35.6588 24.5558L35.6588 23.4281L35.6588 22.5558L34.0059 22.5558L32.0809 22.5558C31.9186 21.6406 31.5969 20.7377 31.1054 19.8863C30.6145 19.0361 29.9945 18.307 29.2845 17.7094L30.2471 16.042L31.0726 14.6122L30.3171 14.1761L29.3406 13.6122L28.5851 13.1761L27.761 14.6034L26.7962 16.2745C25.0245 15.6329 23.0427 15.6019 21.1974 16.2742L20.2338 14.6052L19.4097 13.1779L18.6542 13.614L17.6777 14.1779L16.9222 14.614Z"/>
<circle style="stroke:inherit; fill:none;" cx="23.9927" cy="23.9882" r="3.61627" transform="rotate(-30 23.9927 23.9882)" stroke-width="2"/>
</svg>
