<svg width="40" height="40" viewBox="0 0 40 40" xmlns="http://www.w3.org/2000/svg">
<path style="fill:inherit; stroke:none;" d="M20 27.8462C20.7647 27.8462 21.3846 27.2262 21.3846 26.4615C21.3846 25.6968 20.7647 25.0769 20 25.0769C19.2353 25.0769 18.6154 25.6968 18.6154 26.4615C18.6154 27.2262 19.2353 27.8462 20 27.8462Z" />
<path style="fill:inherit; stroke:none;" d="M20.9231 12.6154H19.5385C18.9927 12.6142 18.452 12.7208 17.9475 12.9291C17.4429 13.1374 16.9845 13.4434 16.5986 13.8293C16.2126 14.2153 15.9067 14.6737 15.6984 15.1782C15.49 15.6827 15.3834 16.2234 15.3847 16.7692V17.2308H17.2308V16.7692C17.2308 16.1572 17.4739 15.5702 17.9067 15.1375C18.3395 14.7047 18.9265 14.4616 19.5385 14.4616H20.9231C21.5352 14.4616 22.1221 14.7047 22.5549 15.1375C22.9877 15.5702 23.2308 16.1572 23.2308 16.7692C23.2308 17.3813 22.9877 17.9683 22.5549 18.401C22.1221 18.8338 21.5352 19.0769 20.9231 19.0769H19.077V23.2308H20.9231V20.9231C22.0248 20.9231 23.0813 20.4855 23.8603 19.7065C24.6393 18.9275 25.077 17.8709 25.077 16.7692C25.077 15.6676 24.6393 14.611 23.8603 13.832C23.0813 13.053 22.0248 12.6154 20.9231 12.6154Z" />
<rect x="9" y="9" width="22" height="22" rx="11" style="stroke:inherit; fill:none" stroke-width="2"/>
</svg>
