<svg width="32" height="32" viewBox="0 0 32 32" fill="none" xmlns="http://www.w3.org/2000/svg">
<rect width="32" height="32" rx="4" fill="#E68840" fill-opacity="0.1"/>
<path d="M16.001 6.1333C10.8969 6.1333 6.89331 8.46715 6.89331 11.4461V20.5538C6.89331 23.5328 10.8969 25.8666 16.001 25.8666C21.1051 25.8666 25.1087 23.5328 25.1087 20.5538V11.4461C25.1087 8.46715 21.1051 6.1333 16.001 6.1333ZM23.5907 16C23.5907 16.9107 22.8413 17.8405 21.5415 18.552C20.071 19.3584 18.1072 19.7948 16.001 19.7948C13.8948 19.7948 11.931 19.3584 10.4605 18.552C9.16075 17.8405 8.41126 16.9107 8.41126 16V14.4251C10.0336 15.8387 12.7943 16.7589 16.001 16.7589C19.2077 16.7589 21.9684 15.8387 23.5907 14.4251V16ZM10.4605 8.89407C11.931 8.08766 13.8948 7.65125 16.001 7.65125C18.1072 7.65125 20.071 8.08766 21.5415 8.89407C22.8413 9.60561 23.5907 10.5354 23.5907 11.4461C23.5907 12.3569 22.8413 13.2866 21.5415 13.9982C20.071 14.8046 18.1072 15.241 16.001 15.241C13.8948 15.241 11.931 14.8046 10.4605 13.9982C9.16075 13.2866 8.41126 12.3569 8.41126 11.4461C8.41126 10.5354 9.16075 9.60561 10.4605 8.89407ZM21.5415 23.1059C20.071 23.9123 18.1072 24.3487 16.001 24.3487C13.8948 24.3487 11.931 23.9123 10.4605 23.1059C9.16075 22.3943 8.41126 21.4646 8.41126 20.5538V18.9789C10.0336 20.3925 12.7943 21.3128 16.001 21.3128C19.2077 21.3128 21.9684 20.3925 23.5907 18.9789V20.5538C23.5907 21.4646 22.8413 22.3943 21.5415 23.1059Z" fill="#E68840"/>
</svg>
